<svg xmlns="http://www.w3.org/2000/svg" xmlns:xlink="http://www.w3.org/1999/xlink" width="500" zoomAndPan="magnify" viewBox="0 0 375 303.749993" height="405" preserveAspectRatio="xMidYMid meet" version="1.0"><defs><clipPath id="99a289484e"><path d="M 0.152344 1 L 358 1 L 358 302 L 0.152344 302 Z M 0.152344 1 " clip-rule="nonzero"/></clipPath></defs><g clip-path="url(#99a289484e)"><path fill="#a359a0" d="M 24.9375 286.402344 C 25.113281 280.160156 16.359375 269.652344 15.6875 265.191406 C 14.40625 256.683594 14.699219 248.765625 9.503906 242.28125 C 10.1875 244.421875 11.027344 246.546875 11.398438 248.59375 C 12.363281 253.695312 12.78125 258.972656 13.523438 264.109375 C 14.78125 272.964844 19.113281 279.917969 24.9375 286.402344 Z M 133.9375 213.292969 C 133.914062 204.367188 136.007812 190.804688 128.511719 184.585938 C 123.941406 180.84375 110.285156 172.847656 108.636719 182.910156 C 107.078125 192.582031 103.71875 204.785156 114.050781 210.875 C 120.246094 214.527344 127.082031 215.09375 133.9375 213.292969 Z M 150.6875 20.363281 C 143.085938 12.007812 128.777344 19.085938 121.503906 24.511719 C 113.585938 30.429688 108.089844 37.972656 103.742188 46.78125 C 99.558594 55.289062 95.1875 64.242188 92.457031 73.363281 C 89.433594 83.359375 91.757812 92.308594 94.375 101.839844 C 96.941406 99.34375 99.800781 97.121094 102.707031 95.03125 C 105.472656 93.054688 108.308594 90.984375 111.214844 89.03125 C 116.621094 72.957031 124.558594 57.417969 131 41.644531 C 135.785156 29.964844 141.332031 25.988281 150.6875 20.363281 Z M 142.957031 235.492188 C 142.992188 235.46875 143.039062 235.449219 143.085938 235.425781 C 139.085938 229.949219 134.820312 224.546875 134.054688 217.863281 C 124.90625 219.953125 113.585938 218.546875 107.320312 210.957031 C 103.847656 206.691406 101.453125 201.707031 102.171875 196.058594 C 102.613281 192.558594 102.683594 187.816406 103.542969 183.621094 C 96.769531 188.628906 89.539062 193.152344 82.925781 198.300781 C 75.90625 203.75 68.304688 207.75 60.085938 211.027344 C 42.453125 218.082031 28.4375 230.589844 10.710938 237.050781 C 11.988281 238.214844 13.175781 239.445312 14.210938 240.804688 C 17.664062 237.992188 21.394531 236.433594 24.648438 235.027344 C 28.542969 233.378906 32.097656 232.125 35.097656 230.738281 C 38.140625 229.425781 40.523438 227.878906 42.804688 226.371094 C 45.046875 224.917969 47.011719 223.660156 48.71875 222.570312 C 55.554688 218.257812 58.367188 216.875 58.65625 217.292969 C 58.957031 217.710938 56.703125 219.835938 50.195312 224.71875 C 48.566406 225.929688 46.671875 227.335938 44.5 228.9375 C 43.394531 229.707031 42.304688 230.589844 40.953125 231.402344 C 39.59375 232.214844 38.140625 233.132812 36.5625 233.820312 C 33.398438 235.402344 29.855469 236.703125 26.078125 238.351562 C 22.800781 239.804688 19.21875 241.46875 16.234375 244.003906 C 16.71875 245.011719 17.175781 246.058594 17.488281 247.1875 C 19.441406 254.289062 18.476562 262.402344 22.007812 268.945312 C 22.519531 268.621094 23.089844 268.269531 23.613281 267.957031 C 24.9375 267.363281 26.25 266.769531 27.507812 266.203125 C 30.015625 265.144531 32.386719 264.179688 34.457031 263.097656 C 38.804688 260.925781 42.523438 258.460938 46.230469 256.765625 C 53.554688 253.03125 59.378906 250.882812 63.78125 249.035156 C 72.8125 245.757812 76.371094 244.875 76.542969 245.363281 C 76.71875 245.828125 73.511719 247.582031 64.828125 251.429688 C 60.585938 253.578125 54.714844 256.042969 47.835938 259.761719 C 44.277344 261.496094 40.605469 264.039062 36.144531 266.328125 C 32.273438 268.445312 27.773438 269.78125 23.777344 272.128906 C 25.066406 274.371094 26.542969 277.128906 27.625 279.964844 C 31.527344 278.171875 35.246094 276.464844 38.734375 274.835938 C 42.699219 273.105469 46.40625 271.480469 49.882812 269.957031 L 49.972656 269.910156 L 49.996094 269.875 C 54.125 268.179688 57.691406 265.785156 61.074219 263.609375 C 62.851562 262.597656 64.433594 261.472656 66.234375 260.773438 C 67.09375 260.414062 67.953125 260.019531 68.769531 259.667969 C 69.605469 259.320312 70.417969 259.125 71.210938 258.855469 C 74.464844 257.890625 77.007812 256.902344 79.449219 256.089844 C 81.867188 255.125 83.9375 254.3125 85.820312 253.625 C 87.691406 252.941406 89.273438 252.371094 90.597656 251.929688 C 91.980469 251.582031 93.117188 251.3125 93.980469 251.117188 C 95.734375 250.742188 96.523438 250.683594 96.59375 250.917969 C 96.640625 251.117188 95.953125 251.558594 94.351562 252.265625 C 93.539062 252.636719 92.527344 253.078125 91.234375 253.578125 C 89.980469 254.171875 88.480469 254.882812 86.703125 255.71875 C 84.902344 256.53125 82.832031 257.496094 80.484375 258.589844 C 78.066406 259.542969 75.207031 260.773438 72.21875 261.761719 C 71.488281 262.039062 70.675781 262.261719 69.929688 262.597656 C 69.1875 262.949219 68.417969 263.320312 67.664062 263.691406 C 66.082031 264.308594 64.550781 265.46875 62.898438 266.445312 C 59.621094 268.621094 55.972656 271.234375 51.289062 273.234375 L 51.402344 273.164062 C 47.929688 274.746094 44.175781 276.417969 40.210938 278.21875 C 36.609375 279.894531 32.785156 281.671875 28.761719 283.519531 C 28.9375 284.3125 29.085938 285.101562 29.132812 285.84375 C 38.78125 282.996094 48.894531 280.730469 57.109375 274.835938 C 65.386719 268.863281 74.371094 263.980469 83.984375 260.507812 C 104.242188 253.136719 123.082031 243.515625 142.957031 235.492188 Z M 215.996094 94.855469 C 218.878906 84.964844 219.226562 75.316406 205.292969 76.257812 C 197.378906 76.804688 189.507812 77.957031 181.59375 78.628906 C 165.984375 79.910156 150.734375 78.5 136.207031 85.035156 C 136.308594 86.023438 135.9375 87.277344 134.925781 88.859375 C 140.296875 114.636719 124.988281 136.988281 126.246094 162.410156 C 126.488281 167.21875 127.71875 172.800781 124.953125 176.960938 C 126.753906 177.984375 128.441406 179.039062 129.847656 180.003906 C 129.964844 180.074219 130.066406 180.167969 130.160156 180.25 C 142.886719 164.09375 162.777344 170.207031 180.476562 175.613281 C 190.566406 162.757812 193.773438 147.660156 199.945312 132.816406 C 205.199219 120.21875 212.148438 108 215.996094 94.855469 Z M 226.921875 25.128906 C 225.738281 19.351562 222.726562 13.679688 217.730469 10.648438 C 206.828125 6.847656 193.878906 11.613281 183.265625 14.796875 C 174.757812 17.375 164.84375 18.492188 157.546875 23.792969 C 156.671875 24.410156 155.8125 24.558594 155.046875 24.410156 C 148.339844 28.824219 141.191406 32.917969 137.65625 40.191406 C 137.296875 40.984375 136.671875 41.273438 136.054688 41.308594 C 134.402344 45.132812 132.925781 49.003906 131.21875 52.804688 C 126.488281 63.265625 121.234375 74.457031 117.191406 85.429688 C 119.585938 84.152344 122.070312 83.035156 124.664062 82.28125 C 126.90625 81.605469 130.066406 81.335938 132.507812 81.882812 C 149.652344 73.46875 168.761719 75.097656 187.382812 73.492188 C 187.441406 73.421875 187.441406 73.339844 187.507812 73.273438 C 192.496094 67.820312 198.144531 62.367188 201.597656 55.789062 C 204.304688 50.652344 206.917969 45.667969 210.300781 40.9375 C 211.359375 39.460938 213.488281 37.796875 215.871094 36.054688 C 216.042969 35.789062 216.300781 35.53125 216.636719 35.3125 C 217.089844 35.042969 217.53125 34.800781 217.996094 34.519531 C 222.019531 31.566406 226.109375 28.382812 226.921875 25.128906 Z M 225.691406 212.875 C 229.515625 207.050781 237.082031 195.171875 223.050781 190.851562 C 218.9375 189.570312 214.8125 188.410156 210.59375 187.503906 C 206.628906 186.628906 202.628906 185.875 198.632812 185.003906 C 198.191406 185.0625 197.773438 184.980469 197.445312 184.757812 C 194.832031 184.167969 192.195312 183.574219 189.601562 182.839844 C 187.242188 182.191406 184.671875 181.378906 182.011719 180.515625 C 181.046875 181.0625 179.988281 180.539062 179.394531 179.679688 C 163.460938 174.554688 144.179688 168.90625 133.542969 183.0625 C 133.496094 183.132812 133.414062 183.15625 133.371094 183.238281 C 140.007812 191.351562 138.179688 204.496094 138.378906 214.210938 C 138.378906 214.304688 138.332031 214.386719 138.332031 214.480469 C 138.332031 214.605469 138.378906 214.699219 138.378906 214.828125 C 137.984375 222.628906 143.527344 228.71875 148.074219 234.902344 C 155.023438 241.222656 161.789062 249.429688 171.398438 251.453125 C 179.59375 253.183594 196.238281 257.519531 202.980469 249.777344 C 207.90625 244.058594 210.230469 237.121094 214.019531 230.71875 C 217.648438 224.566406 221.796875 218.851562 225.691406 212.875 Z M 220.171875 292.320312 C 224.261719 289.914062 227.933594 286.53125 225.933594 281.71875 C 223.890625 276.730469 216.890625 274.710938 212.476562 272.546875 C 204.480469 268.574219 196.855469 264.355469 190.125 258.460938 C 183.359375 258.683594 176.234375 257.542969 170.226562 255.71875 C 163.707031 253.753906 158.648438 250.242188 153.835938 246.128906 C 153.789062 246.304688 153.769531 246.476562 153.699219 246.640625 C 147.175781 262.832031 171.796875 280.636719 183.90625 287.148438 C 190.34375 290.621094 197.945312 294.644531 205.488281 294.621094 C 210.59375 294.597656 215.207031 293.015625 220.171875 292.320312 Z M 287.410156 70.191406 C 290.488281 66.984375 301.660156 59.753906 291.523438 54.058594 C 287.015625 51.546875 282.296875 49.839844 277.519531 47.921875 C 257.257812 39.773438 237.476562 40.808594 216.125 40.984375 C 210.71875 46.679688 208.304688 54.300781 203.6875 60.847656 C 200.734375 65.054688 197.402344 68.960938 193.972656 72.761719 C 205.117188 71.226562 220.390625 68.414062 222.53125 82.453125 C 222.632812 83.09375 222.65625 83.730469 222.703125 84.371094 C 238.8125 84.988281 255.167969 85.035156 270.683594 89.871094 C 272.996094 90.589844 275.367188 90.878906 277.761719 91.007812 C 280.820312 84.152344 282.050781 75.757812 287.410156 70.191406 Z M 294.847656 51.199219 C 296.207031 50.257812 297.519531 49.269531 298.847656 48.316406 C 295.347656 34.996094 278.949219 34.625 267.523438 33.394531 C 255.691406 32.101562 243.996094 31.8125 232.128906 32.917969 C 231.863281 32.941406 231.582031 32.941406 231.339844 32.917969 C 228.65625 33.90625 226.039062 35.113281 223.515625 36.496094 C 248.113281 36.253906 274.007812 36.601562 294.847656 51.199219 Z M 285.585938 141.941406 C 290.046875 133.035156 308.886719 113.625 301.21875 103.144531 C 293.8125 93.054688 287.257812 97.167969 277.5625 95.867188 C 272.183594 95.144531 267.347656 93.125 262.023438 92.089844 C 249.03125 89.601562 235.882812 89.335938 222.679688 88.8125 C 221.378906 103.957031 209.140625 121.273438 204.234375 134 C 198.410156 149.066406 194.585938 163.988281 185.023438 176.960938 C 186.996094 177.53125 188.914062 178.097656 190.785156 178.5625 C 192.984375 179.109375 195.949219 179.609375 199.328125 180.121094 C 216.890625 173.265625 237.164062 172.425781 255.804688 173.460938 C 261.929688 173.8125 268.488281 175.367188 274.949219 176.296875 C 275.101562 176.101562 275.273438 175.902344 275.472656 175.761719 C 279.320312 164.710938 280.378906 152.273438 285.585938 141.941406 Z M 301.855469 214.015625 C 306.179688 206.191406 304.773438 197.488281 302.554688 189.175781 C 299.460938 177.554688 291.617188 182.785156 284.199219 182.050781 C 281.679688 181.773438 279.191406 181.457031 276.726562 181.132812 C 276.378906 181.132812 276.03125 181.085938 275.714844 180.980469 C 264.90625 179.484375 254.398438 177.554688 243.160156 177.808594 C 231.515625 178.054688 219.972656 178.738281 208.824219 181.703125 C 224.039062 184.539062 240.636719 189.816406 234.664062 205.179688 C 229.886719 217.488281 220.238281 227.335938 214.519531 239.292969 C 211.488281 245.605469 207.640625 254.484375 200.257812 256.832031 C 200.039062 256.902344 199.816406 256.960938 199.597656 257.007812 C 212.324219 261.585938 226.285156 261.4375 239.558594 259.9375 C 251.691406 258.613281 267.648438 258.507812 276.378906 248.988281 C 285.921875 238.527344 294.976562 226.441406 301.855469 214.015625 Z M 313.527344 259.648438 C 313.574219 259.34375 313.628906 259.101562 313.722656 258.855469 C 305.726562 250.347656 285.78125 255.890625 277.121094 257.742188 C 266.859375 259.9375 256.527344 262.972656 246.019531 263.667969 C 232.617188 264.574219 217.089844 265.828125 203.375 262.632812 C 207.023438 264.855469 210.847656 266.792969 214.71875 268.699219 C 220.066406 271.316406 225.761719 273.234375 229.269531 278.265625 C 233.164062 283.8125 230.746094 288.726562 226.65625 292.550781 C 243.625 294.691406 260.710938 292.644531 276.902344 286.949219 C 290.164062 282.265625 311.304688 276.488281 313.527344 259.648438 Z M 327.753906 132.886719 C 331.53125 123.472656 338.65625 112.707031 332.078125 102.398438 C 323.882812 89.648438 313.816406 94.632812 302.054688 94.613281 C 301.171875 94.613281 300.277344 94.589844 299.390625 94.589844 C 300.753906 95.542969 302.007812 96.785156 303.191406 98.378906 C 310.691406 108.59375 305.785156 118.808594 299.265625 128.328125 C 293.394531 136.929688 288.617188 144.882812 286.074219 155.167969 C 284.550781 161.351562 283.015625 167.464844 281.015625 173.484375 C 290.78125 169.835938 300.378906 166.429688 309.875 161.769531 C 313.304688 160.09375 316.652344 158.222656 320.035156 156.398438 C 320.035156 156.375 320.035156 156.375 320.035156 156.375 C 324.347656 149.042969 324.648438 140.660156 327.753906 132.886719 Z M 336.714844 84.695312 C 336.367188 77.363281 333.878906 70.039062 326.871094 66.65625 C 318.058594 62.414062 310.316406 56.847656 301.808594 52.164062 C 301.660156 52.058594 301.566406 51.976562 301.4375 51.886719 C 300.425781 52.605469 299.4375 53.316406 298.425781 54.058594 C 301.242188 57.242188 301.960938 61.859375 298.800781 65.285156 C 294.046875 70.414062 288.78125 73.667969 286.316406 80.792969 C 285.257812 83.882812 284.222656 86.917969 283.039062 89.890625 C 289.375 89.871094 295.742188 90.589844 302.054688 90.171875 C 308.320312 89.753906 314.1875 88.042969 320.476562 88.371094 C 322.335938 88.460938 324.054688 89.007812 325.683594 89.800781 C 325.949219 89.671875 326.253906 89.601562 326.566406 89.578125 C 330.226562 89.449219 334.121094 87.160156 336.714844 84.695312 Z M 340.339844 121.296875 C 345.316406 112.570312 346.128906 97.820312 337.839844 90.832031 C 337.550781 90.589844 337.351562 90.324219 337.15625 90.066406 C 335.15625 91.472656 332.890625 92.660156 330.542969 93.355469 C 333.527344 96.261719 335.820312 100.003906 337.328125 103.339844 C 340.316406 110 339.027344 117.601562 336.46875 124.226562 C 337.574219 123.414062 338.738281 122.703125 339.992188 122.089844 C 340.085938 121.84375 340.1875 121.566406 340.339844 121.296875 Z M 315.792969 254.789062 C 325.882812 247.269531 364.238281 215.769531 345.417969 201.414062 C 342.082031 206.855469 338.433594 211.667969 332.960938 216.035156 C 326.007812 221.558594 319.175781 226.347656 312.933594 232.761719 C 305.902344 240.015625 298.425781 246.175781 289.917969 250.789062 C 299.289062 249.40625 309.457031 249.3125 315.792969 254.789062 Z M 345.882812 153.144531 C 347.765625 145.148438 349.976562 130.179688 343.6875 127.957031 C 340.386719 128.273438 337.027344 130.351562 334.515625 132.421875 C 333.925781 133.210938 333.355469 134.023438 332.808594 134.863281 C 332.621094 135.1875 332.34375 135.429688 332.078125 135.582031 C 330.273438 141.371094 328.890625 147.320312 326.648438 152.84375 C 328.472656 151.902344 330.320312 150.996094 332.191406 150.15625 C 339.886719 146.707031 343.152344 149.019531 345.882812 153.144531 Z M 349.535156 174.84375 C 349.730469 170.207031 349.535156 166.953125 348.175781 164.070312 C 347.023438 161.59375 345.023438 159.375 341.710938 156.816406 C 337.503906 153.503906 333.355469 154.097656 328.820312 156.738281 C 324.578125 159.210938 320.429688 161.921875 315.988281 164.011719 C 305.414062 169.023438 294.90625 172.949219 284.144531 177.019531 C 286.539062 176.996094 288.910156 176.738281 291.175781 176.148438 C 295.671875 174.996094 299.019531 174.554688 302.578125 178.097656 C 309.039062 184.5625 312.074219 204.691406 307.550781 212.898438 C 300.136719 226.300781 290.78125 238.96875 280.355469 250.324219 C 294.382812 244.523438 303.167969 234.4375 314.957031 224.101562 C 320.558594 219.199219 327.289062 215.59375 332.738281 210.585938 C 337.863281 205.820312 339.445312 201.21875 342.140625 195.140625 C 345.117188 188.433594 349.21875 182.410156 349.535156 174.84375 Z M 352.566406 157.0625 C 356.785156 160.734375 357.230469 168.035156 357.007812 173.21875 C 356.671875 181.480469 353.925781 188.535156 350.148438 195.683594 C 374.347656 213.957031 336.238281 248.371094 320.824219 260.191406 C 318.164062 278 301.4375 285.914062 285.945312 291.5625 C 265.082031 299.128906 244.4375 302.734375 222.4375 299.398438 C 222.238281 299.457031 222.066406 299.5 221.867188 299.5 C 211.753906 300.441406 204.351562 303.476562 194.238281 299.851562 C 184.871094 296.46875 176.457031 291.726562 168.515625 285.785156 C 157.289062 277.382812 141.367188 262.179688 145.96875 246.546875 C 144.980469 245.558594 144.074219 244.5 143.308594 243.339844 C 133.8125 247.335938 124.816406 252.242188 115.410156 256.4375 C 105.765625 260.75 95.757812 263.738281 85.960938 267.632812 C 74.300781 272.246094 65.003906 280.511719 53.707031 285.34375 C 44.71875 289.191406 35.269531 291.433594 26.03125 294.539062 C 25.019531 294.886719 24.125 294.769531 23.414062 294.398438 C 22.648438 294.339844 21.882812 294.003906 21.195312 293.285156 C 13.617188 285.261719 7.96875 277.105469 6.363281 266.074219 C 5.527344 260.308594 5.503906 252.394531 3.609375 246.941406 C 2.226562 243.050781 0.621094 239.980469 0.996094 235.796875 C 1.109375 234.609375 1.65625 233.691406 2.425781 233.097656 C 2.820312 232.320312 3.527344 231.625 4.644531 231.308594 C 23.113281 225.753906 36.652344 212.480469 54.367188 205.402344 C 65.757812 200.84375 74.8125 195.394531 84.4375 187.746094 C 90.503906 182.957031 97.316406 179.261719 103.300781 174.425781 C 83.867188 158.980469 75.753906 128.351562 88.015625 106.664062 C 83.773438 90.683594 82.019531 79.421875 88.332031 63.601562 C 93.09375 51.664062 97.894531 38.34375 106.4375 28.5 C 117.5625 15.679688 142.621094 -0.0585938 156.429688 15.75 C 165.808594 10.183594 178.582031 8.054688 188.824219 5.519531 C 198.261719 3.148438 208.699219 0.289062 218.285156 3.046875 C 218.855469 3.023438 219.425781 3.125 220.019531 3.417969 C 228.410156 7.347656 232.921875 16.492188 234.417969 25.351562 C 250.925781 23.988281 268.589844 24.582031 284.6875 28.453125 C 295.742188 31.089844 303.136719 35.066406 305.925781 45.992188 C 311.992188 49.398438 317.523438 53.734375 323.730469 56.894531 C 327.832031 58.964844 333.238281 60.519531 336.367188 64.066406 C 341.886719 70.285156 344.164062 78.433594 344.140625 86.613281 C 352.941406 95.226562 353.066406 110.8125 348.277344 121.867188 C 358.171875 127.480469 355.230469 147.195312 352.566406 157.0625 Z M 120.421875 88.8125 C 117.167969 90.566406 114.085938 92.53125 111.019531 94.632812 C 105.984375 98.0625 100.570312 101.609375 96.375 106.152344 C 96.394531 106.792969 96.222656 107.453125 95.78125 108.175781 C 83.054688 127.65625 91.410156 158.421875 111.097656 170.929688 C 111.691406 171.324219 112.085938 171.789062 112.378906 172.277344 C 117.410156 173.34375 122.488281 173.660156 122.199219 168.558594 C 121.804688 162.070312 121.746094 155.65625 122.910156 149.214844 C 126.535156 129.144531 135.125 110 130.511719 89.3125 C 130.382812 88.742188 130.511719 88.265625 130.707031 87.847656 C 130.707031 87.476562 130.777344 87.089844 131.042969 86.695312 C 132.660156 84.277344 121.015625 88.859375 120.398438 88.859375 L 120.421875 88.8125 " fill-opacity="1" fill-rule="nonzero"/></g></svg>