<svg xmlns="http://www.w3.org/2000/svg" xmlns:xlink="http://www.w3.org/1999/xlink" width="50" zoomAndPan="magnify" viewBox="0 0 37.5 37.499999" height="50" preserveAspectRatio="xMidYMid meet" version="1.0"><defs><clipPath id="9be9c7f1e0"><path d="M 0.230469 3.75 L 36 3.75 L 36 33.75 L 0.230469 33.75 Z M 0.230469 3.75 " clip-rule="nonzero"/></clipPath></defs><g clip-path="url(#9be9c7f1e0)"><path fill="#a359a0" d="M 2.660156 32.058594 C 2.675781 31.441406 1.820312 30.40625 1.753906 29.964844 C 1.625 29.121094 1.65625 28.339844 1.144531 27.699219 C 1.214844 27.910156 1.296875 28.121094 1.332031 28.324219 C 1.425781 28.828125 1.46875 29.347656 1.539062 29.855469 C 1.664062 30.730469 2.089844 31.417969 2.660156 32.058594 Z M 13.351562 24.832031 C 13.351562 23.949219 13.554688 22.609375 12.820312 21.996094 C 12.371094 21.625 11.03125 20.835938 10.871094 21.832031 C 10.71875 22.785156 10.386719 23.992188 11.402344 24.59375 C 12.007812 24.957031 12.679688 25.011719 13.351562 24.832031 Z M 14.996094 5.761719 C 14.25 4.9375 12.847656 5.636719 12.132812 6.171875 C 11.355469 6.757812 10.816406 7.503906 10.390625 8.375 C 9.980469 9.214844 9.550781 10.101562 9.28125 11 C 8.988281 11.988281 9.214844 12.875 9.472656 13.816406 C 9.722656 13.570312 10.003906 13.351562 10.289062 13.144531 C 10.558594 12.949219 10.839844 12.742188 11.125 12.550781 C 11.652344 10.960938 12.433594 9.425781 13.0625 7.867188 C 13.535156 6.710938 14.078125 6.320312 14.996094 5.761719 Z M 14.238281 27.027344 C 14.242188 27.027344 14.246094 27.023438 14.25 27.019531 C 13.859375 26.480469 13.4375 25.945312 13.363281 25.285156 C 12.464844 25.492188 11.355469 25.351562 10.742188 24.601562 C 10.402344 24.179688 10.164062 23.6875 10.234375 23.128906 C 10.28125 22.785156 10.285156 22.316406 10.371094 21.898438 C 9.707031 22.394531 8.996094 22.84375 8.347656 23.351562 C 7.660156 23.890625 6.914062 24.285156 6.109375 24.609375 C 4.378906 25.308594 3.003906 26.542969 1.265625 27.183594 C 1.390625 27.296875 1.507812 27.417969 1.609375 27.554688 C 1.945312 27.273438 2.3125 27.121094 2.632812 26.980469 C 3.011719 26.820312 3.363281 26.695312 3.65625 26.558594 C 3.953125 26.429688 4.1875 26.273438 4.414062 26.125 C 4.632812 25.980469 4.824219 25.859375 4.992188 25.75 C 5.664062 25.324219 5.9375 25.1875 5.96875 25.230469 C 5.996094 25.269531 5.777344 25.480469 5.136719 25.960938 C 4.976562 26.082031 4.792969 26.222656 4.578125 26.378906 C 4.46875 26.457031 4.363281 26.542969 4.230469 26.625 C 4.097656 26.703125 3.953125 26.792969 3.800781 26.863281 C 3.488281 27.019531 3.140625 27.148438 2.773438 27.308594 C 2.449219 27.453125 2.097656 27.617188 1.804688 27.867188 C 1.855469 27.96875 1.898438 28.070312 1.929688 28.183594 C 2.121094 28.886719 2.027344 29.6875 2.371094 30.335938 C 2.421875 30.300781 2.480469 30.269531 2.53125 30.238281 C 2.660156 30.179688 2.789062 30.121094 2.910156 30.0625 C 3.15625 29.957031 3.390625 29.863281 3.59375 29.757812 C 4.019531 29.542969 4.386719 29.296875 4.75 29.128906 C 5.46875 28.761719 6.039062 28.550781 6.46875 28.367188 C 7.355469 28.042969 7.703125 27.953125 7.722656 28.003906 C 7.738281 28.050781 7.425781 28.222656 6.574219 28.601562 C 6.15625 28.816406 5.582031 29.058594 4.90625 29.425781 C 4.558594 29.597656 4.195312 29.847656 3.757812 30.074219 C 3.378906 30.285156 2.9375 30.417969 2.546875 30.648438 C 2.671875 30.871094 2.816406 31.144531 2.921875 31.421875 C 3.304688 31.246094 3.671875 31.078125 4.011719 30.917969 C 4.402344 30.746094 4.765625 30.585938 5.105469 30.433594 L 5.117188 30.429688 L 5.117188 30.425781 C 5.523438 30.257812 5.871094 30.023438 6.203125 29.808594 C 6.378906 29.707031 6.535156 29.59375 6.710938 29.527344 C 6.796875 29.492188 6.878906 29.453125 6.960938 29.417969 C 7.042969 29.382812 7.121094 29.363281 7.199219 29.335938 C 7.519531 29.242188 7.769531 29.144531 8.007812 29.0625 C 8.246094 28.96875 8.449219 28.886719 8.632812 28.820312 C 8.816406 28.753906 8.96875 28.695312 9.101562 28.652344 C 9.234375 28.617188 9.347656 28.589844 9.433594 28.570312 C 9.605469 28.535156 9.683594 28.53125 9.6875 28.550781 C 9.695312 28.570312 9.625 28.617188 9.46875 28.6875 C 9.390625 28.722656 9.289062 28.765625 9.164062 28.816406 C 9.039062 28.875 8.894531 28.945312 8.71875 29.027344 C 8.542969 29.105469 8.339844 29.203125 8.109375 29.3125 C 7.871094 29.40625 7.589844 29.527344 7.296875 29.625 C 7.226562 29.652344 7.144531 29.671875 7.074219 29.707031 C 7 29.742188 6.925781 29.777344 6.851562 29.816406 C 6.695312 29.875 6.546875 29.992188 6.382812 30.085938 C 6.0625 30.300781 5.703125 30.5625 5.246094 30.757812 L 5.257812 30.75 C 4.914062 30.90625 4.546875 31.074219 4.15625 31.25 C 3.804688 31.417969 3.429688 31.59375 3.035156 31.773438 C 3.050781 31.851562 3.066406 31.929688 3.070312 32.003906 C 4.019531 31.722656 5.007812 31.5 5.816406 30.917969 C 6.628906 30.328125 7.507812 29.84375 8.453125 29.5 C 10.4375 28.773438 12.289062 27.820312 14.238281 27.027344 Z M 21.402344 13.125 C 21.683594 12.148438 21.71875 11.195312 20.351562 11.289062 C 19.574219 11.34375 18.804688 11.457031 18.027344 11.523438 C 16.496094 11.648438 15 11.507812 13.574219 12.15625 C 13.585938 12.253906 13.546875 12.378906 13.449219 12.535156 C 13.976562 15.082031 12.472656 17.289062 12.597656 19.804688 C 12.621094 20.277344 12.742188 20.832031 12.472656 21.242188 C 12.648438 21.34375 12.8125 21.449219 12.949219 21.542969 C 12.960938 21.550781 12.972656 21.558594 12.980469 21.566406 C 14.230469 19.96875 16.179688 20.574219 17.917969 21.109375 C 18.90625 19.839844 19.222656 18.34375 19.828125 16.878906 C 20.34375 15.632812 21.023438 14.425781 21.402344 13.125 Z M 22.472656 6.234375 C 22.355469 5.664062 22.0625 5.101562 21.570312 4.800781 C 20.503906 4.425781 19.230469 4.898438 18.191406 5.210938 C 17.355469 5.46875 16.382812 5.578125 15.667969 6.101562 C 15.582031 6.164062 15.5 6.175781 15.421875 6.164062 C 14.765625 6.597656 14.0625 7.003906 13.71875 7.722656 C 13.683594 7.800781 13.621094 7.828125 13.558594 7.832031 C 13.398438 8.210938 13.253906 8.59375 13.085938 8.96875 C 12.621094 10.003906 12.105469 11.109375 11.710938 12.195312 C 11.945312 12.066406 12.1875 11.957031 12.441406 11.882812 C 12.664062 11.816406 12.972656 11.789062 13.210938 11.84375 C 14.894531 11.011719 16.769531 11.171875 18.59375 11.015625 C 18.601562 11.007812 18.601562 11 18.605469 10.992188 C 19.097656 10.453125 19.652344 9.914062 19.988281 9.265625 C 20.253906 8.757812 20.511719 8.265625 20.84375 7.796875 C 20.945312 7.652344 21.15625 7.484375 21.390625 7.3125 C 21.40625 7.289062 21.429688 7.261719 21.464844 7.242188 C 21.507812 7.214844 21.550781 7.191406 21.597656 7.164062 C 21.992188 6.871094 22.394531 6.554688 22.472656 6.234375 Z M 22.351562 24.792969 C 22.726562 24.214844 23.46875 23.042969 22.09375 22.613281 C 21.691406 22.488281 21.285156 22.375 20.871094 22.285156 C 20.484375 22.199219 20.089844 22.125 19.699219 22.035156 C 19.65625 22.042969 19.613281 22.035156 19.582031 22.011719 C 19.324219 21.953125 19.066406 21.894531 18.8125 21.824219 C 18.582031 21.757812 18.328125 21.679688 18.066406 21.59375 C 17.972656 21.648438 17.871094 21.597656 17.8125 21.511719 C 16.25 21.003906 14.355469 20.445312 13.3125 21.84375 C 13.308594 21.851562 13.300781 21.855469 13.296875 21.863281 C 13.949219 22.664062 13.769531 23.964844 13.789062 24.925781 C 13.789062 24.933594 13.785156 24.941406 13.785156 24.949219 C 13.785156 24.964844 13.789062 24.972656 13.789062 24.984375 C 13.75 25.757812 14.292969 26.359375 14.738281 26.96875 C 15.421875 27.59375 16.085938 28.40625 17.027344 28.605469 C 17.832031 28.777344 19.464844 29.203125 20.125 28.441406 C 20.609375 27.875 20.835938 27.1875 21.207031 26.554688 C 21.5625 25.949219 21.972656 25.382812 22.351562 24.792969 Z M 21.8125 32.644531 C 22.210938 32.40625 22.574219 32.074219 22.375 31.597656 C 22.175781 31.105469 21.488281 30.902344 21.054688 30.691406 C 20.273438 30.296875 19.523438 29.878906 18.863281 29.296875 C 18.199219 29.320312 17.5 29.207031 16.910156 29.027344 C 16.273438 28.832031 15.777344 28.484375 15.304688 28.078125 C 15.300781 28.097656 15.296875 28.113281 15.289062 28.128906 C 14.652344 29.730469 17.066406 31.488281 18.253906 32.132812 C 18.886719 32.476562 19.632812 32.875 20.371094 32.871094 C 20.871094 32.871094 21.324219 32.714844 21.8125 32.644531 Z M 28.40625 10.6875 C 28.710938 10.371094 29.804688 9.65625 28.8125 9.09375 C 28.367188 8.84375 27.90625 8.675781 27.4375 8.488281 C 25.449219 7.679688 23.507812 7.785156 21.414062 7.800781 C 20.882812 8.363281 20.648438 9.117188 20.195312 9.765625 C 19.90625 10.179688 19.578125 10.566406 19.242188 10.941406 C 20.335938 10.789062 21.832031 10.511719 22.042969 11.898438 C 22.054688 11.964844 22.054688 12.027344 22.058594 12.089844 C 23.640625 12.152344 25.246094 12.15625 26.765625 12.632812 C 26.992188 12.703125 27.226562 12.734375 27.460938 12.746094 C 27.761719 12.066406 27.882812 11.238281 28.40625 10.6875 Z M 29.136719 8.8125 C 29.269531 8.71875 29.398438 8.621094 29.527344 8.527344 C 29.1875 7.210938 27.578125 7.171875 26.457031 7.050781 C 25.296875 6.921875 24.148438 6.894531 22.984375 7.003906 C 22.957031 7.007812 22.929688 7.007812 22.90625 7.003906 C 22.644531 7.101562 22.386719 7.222656 22.140625 7.359375 C 24.550781 7.332031 27.09375 7.367188 29.136719 8.8125 Z M 28.226562 17.78125 C 28.664062 16.898438 30.515625 14.980469 29.761719 13.945312 C 29.035156 12.949219 28.390625 13.355469 27.441406 13.226562 C 26.914062 13.15625 26.4375 12.953125 25.917969 12.851562 C 24.640625 12.605469 23.351562 12.582031 22.058594 12.527344 C 21.929688 14.027344 20.730469 15.738281 20.25 16.996094 C 19.675781 18.484375 19.300781 19.960938 18.363281 21.242188 C 18.558594 21.296875 18.746094 21.355469 18.929688 21.402344 C 19.144531 21.453125 19.433594 21.503906 19.765625 21.554688 C 21.488281 20.875 23.476562 20.792969 25.308594 20.894531 C 25.90625 20.929688 26.550781 21.085938 27.183594 21.175781 C 27.199219 21.15625 27.21875 21.136719 27.234375 21.125 C 27.613281 20.03125 27.71875 18.800781 28.226562 17.78125 Z M 29.824219 24.90625 C 30.25 24.132812 30.109375 23.269531 29.894531 22.449219 C 29.589844 21.300781 28.820312 21.816406 28.09375 21.746094 C 27.84375 21.71875 27.601562 21.6875 27.359375 21.65625 C 27.324219 21.65625 27.289062 21.648438 27.261719 21.640625 C 26.199219 21.492188 25.167969 21.300781 24.066406 21.324219 C 22.925781 21.351562 21.792969 21.417969 20.699219 21.710938 C 22.191406 21.992188 23.820312 22.511719 23.234375 24.03125 C 22.765625 25.25 21.816406 26.222656 21.257812 27.402344 C 20.960938 28.027344 20.582031 28.90625 19.859375 29.136719 C 19.835938 29.144531 19.816406 29.148438 19.792969 29.15625 C 21.042969 29.605469 22.410156 29.59375 23.714844 29.445312 C 24.902344 29.3125 26.46875 29.300781 27.324219 28.363281 C 28.261719 27.328125 29.148438 26.132812 29.824219 24.90625 Z M 30.96875 29.414062 C 30.972656 29.386719 30.980469 29.359375 30.988281 29.335938 C 30.203125 28.496094 28.246094 29.042969 27.398438 29.226562 C 26.390625 29.445312 25.378906 29.742188 24.347656 29.8125 C 23.03125 29.902344 21.507812 30.027344 20.164062 29.710938 C 20.523438 29.929688 20.898438 30.121094 21.277344 30.308594 C 21.800781 30.570312 22.359375 30.757812 22.703125 31.253906 C 23.085938 31.804688 22.847656 32.289062 22.449219 32.667969 C 24.113281 32.878906 25.789062 32.675781 27.375 32.113281 C 28.675781 31.652344 30.75 31.078125 30.96875 29.414062 Z M 32.363281 16.886719 C 32.734375 15.953125 33.433594 14.890625 32.789062 13.871094 C 31.984375 12.613281 30.996094 13.105469 29.84375 13.101562 C 29.757812 13.101562 29.667969 13.101562 29.582031 13.101562 C 29.714844 13.195312 29.839844 13.316406 29.957031 13.472656 C 30.691406 14.484375 30.210938 15.492188 29.570312 16.433594 C 28.996094 17.285156 28.527344 18.070312 28.277344 19.085938 C 28.125 19.699219 27.976562 20.304688 27.78125 20.898438 C 28.738281 20.539062 29.679688 20.199219 30.609375 19.742188 C 30.949219 19.574219 31.277344 19.390625 31.609375 19.210938 C 31.609375 19.207031 31.609375 19.207031 31.609375 19.207031 C 32.03125 18.480469 32.058594 17.652344 32.363281 16.886719 Z M 33.242188 12.121094 C 33.210938 11.398438 32.964844 10.671875 32.277344 10.339844 C 31.414062 9.917969 30.65625 9.371094 29.820312 8.90625 C 29.804688 8.894531 29.796875 8.886719 29.785156 8.878906 C 29.683594 8.949219 29.585938 9.019531 29.488281 9.09375 C 29.765625 9.410156 29.835938 9.863281 29.523438 10.203125 C 29.058594 10.710938 28.542969 11.03125 28.300781 11.734375 C 28.195312 12.042969 28.09375 12.339844 27.976562 12.636719 C 28.601562 12.632812 29.226562 12.703125 29.84375 12.664062 C 30.457031 12.621094 31.035156 12.453125 31.652344 12.484375 C 31.832031 12.496094 32.003906 12.546875 32.160156 12.625 C 32.1875 12.613281 32.21875 12.605469 32.25 12.605469 C 32.609375 12.59375 32.988281 12.367188 33.242188 12.121094 Z M 33.597656 15.738281 C 34.085938 14.878906 34.167969 13.417969 33.355469 12.730469 C 33.324219 12.703125 33.304688 12.679688 33.285156 12.652344 C 33.089844 12.792969 32.867188 12.910156 32.636719 12.976562 C 32.929688 13.265625 33.15625 13.636719 33.304688 13.964844 C 33.597656 14.625 33.46875 15.375 33.21875 16.03125 C 33.328125 15.949219 33.441406 15.878906 33.566406 15.816406 C 33.574219 15.792969 33.585938 15.765625 33.597656 15.738281 Z M 31.191406 28.933594 C 32.179688 28.191406 35.945312 25.078125 34.097656 23.660156 C 33.769531 24.195312 33.414062 24.671875 32.875 25.105469 C 32.195312 25.648438 31.523438 26.125 30.910156 26.757812 C 30.222656 27.476562 29.488281 28.082031 28.652344 28.539062 C 29.574219 28.402344 30.570312 28.394531 31.191406 28.933594 Z M 34.144531 18.886719 C 34.328125 18.097656 34.542969 16.617188 33.929688 16.398438 C 33.605469 16.429688 33.273438 16.636719 33.027344 16.839844 C 32.96875 16.917969 32.914062 16.996094 32.859375 17.082031 C 32.84375 17.113281 32.816406 17.136719 32.789062 17.152344 C 32.613281 17.722656 32.476562 18.3125 32.257812 18.859375 C 32.433594 18.765625 32.617188 18.675781 32.800781 18.59375 C 33.554688 18.25 33.875 18.480469 34.144531 18.886719 Z M 34.5 21.03125 C 34.519531 20.574219 34.5 20.253906 34.367188 19.96875 C 34.253906 19.722656 34.058594 19.503906 33.734375 19.25 C 33.320312 18.921875 32.914062 18.980469 32.46875 19.242188 C 32.054688 19.488281 31.644531 19.753906 31.210938 19.960938 C 30.171875 20.457031 29.140625 20.84375 28.085938 21.246094 C 28.320312 21.246094 28.554688 21.21875 28.777344 21.160156 C 29.21875 21.046875 29.546875 21.003906 29.894531 21.355469 C 30.527344 21.992188 30.828125 23.984375 30.382812 24.792969 C 29.65625 26.117188 28.738281 27.371094 27.714844 28.492188 C 29.089844 27.921875 29.953125 26.921875 31.109375 25.902344 C 31.660156 25.417969 32.320312 25.0625 32.855469 24.566406 C 33.355469 24.09375 33.511719 23.640625 33.777344 23.039062 C 34.066406 22.375 34.46875 21.78125 34.5 21.03125 Z M 34.800781 19.273438 C 35.210938 19.636719 35.257812 20.359375 35.234375 20.871094 C 35.203125 21.6875 34.933594 22.386719 34.5625 23.09375 C 36.9375 24.898438 33.195312 28.300781 31.683594 29.46875 C 31.425781 31.230469 29.785156 32.011719 28.261719 32.570312 C 26.21875 33.316406 24.191406 33.675781 22.035156 33.34375 C 22.015625 33.351562 21.996094 33.355469 21.976562 33.355469 C 20.984375 33.449219 20.257812 33.746094 19.265625 33.390625 C 18.347656 33.054688 17.523438 32.585938 16.746094 32 C 15.644531 31.167969 14.082031 29.664062 14.53125 28.121094 C 14.433594 28.023438 14.347656 27.917969 14.269531 27.804688 C 13.339844 28.199219 12.457031 28.683594 11.535156 29.097656 C 10.589844 29.523438 9.605469 29.820312 8.644531 30.203125 C 7.503906 30.660156 6.589844 31.476562 5.480469 31.957031 C 4.601562 32.335938 3.671875 32.558594 2.765625 32.863281 C 2.667969 32.898438 2.578125 32.886719 2.511719 32.851562 C 2.433594 32.84375 2.359375 32.8125 2.292969 32.738281 C 1.550781 31.949219 0.996094 31.140625 0.835938 30.050781 C 0.753906 29.480469 0.753906 28.699219 0.566406 28.160156 C 0.433594 27.773438 0.273438 27.472656 0.3125 27.058594 C 0.324219 26.941406 0.375 26.851562 0.453125 26.792969 C 0.488281 26.714844 0.558594 26.644531 0.667969 26.613281 C 2.480469 26.066406 3.808594 24.753906 5.546875 24.054688 C 6.664062 23.601562 7.550781 23.0625 8.496094 22.308594 C 9.089844 21.835938 9.757812 21.46875 10.347656 20.992188 C 8.441406 19.464844 7.644531 16.4375 8.847656 14.292969 C 8.429688 12.714844 8.257812 11.601562 8.878906 10.035156 C 9.347656 8.855469 9.816406 7.539062 10.65625 6.566406 C 11.746094 5.300781 14.203125 3.746094 15.558594 5.308594 C 16.480469 4.757812 17.730469 4.546875 18.734375 4.296875 C 19.660156 4.0625 20.6875 3.777344 21.625 4.050781 C 21.683594 4.046875 21.738281 4.058594 21.796875 4.085938 C 22.621094 4.476562 23.0625 5.378906 23.210938 6.253906 C 24.828125 6.121094 26.5625 6.179688 28.140625 6.5625 C 29.226562 6.824219 29.949219 7.214844 30.222656 8.296875 C 30.820312 8.632812 31.363281 9.0625 31.96875 9.375 C 32.371094 9.578125 32.902344 9.730469 33.210938 10.082031 C 33.75 10.699219 33.976562 11.503906 33.972656 12.3125 C 34.835938 13.164062 34.847656 14.703125 34.378906 15.796875 C 35.347656 16.351562 35.058594 18.300781 34.800781 19.273438 Z M 12.027344 12.527344 C 11.707031 12.703125 11.40625 12.894531 11.105469 13.105469 C 10.609375 13.441406 10.078125 13.792969 9.667969 14.242188 C 9.667969 14.304688 9.652344 14.371094 9.609375 14.441406 C 8.359375 16.367188 9.179688 19.410156 11.113281 20.644531 C 11.171875 20.683594 11.207031 20.730469 11.238281 20.777344 C 11.730469 20.882812 12.230469 20.914062 12.199219 20.410156 C 12.160156 19.769531 12.15625 19.136719 12.269531 18.5 C 12.625 16.515625 13.46875 14.625 13.015625 12.578125 C 13.003906 12.523438 13.015625 12.476562 13.035156 12.433594 C 13.035156 12.398438 13.042969 12.359375 13.070312 12.320312 C 13.226562 12.082031 12.085938 12.535156 12.023438 12.535156 L 12.027344 12.527344 " fill-opacity="1" fill-rule="nonzero"/></g></svg>