<svg xmlns="http://www.w3.org/2000/svg" xmlns:xlink="http://www.w3.org/1999/xlink" zoomAndPan="magnify" preserveAspectRatio="xMidYMid meet" version="1.0" viewBox="10.53 12.61 241.13 29.17"><defs><g/><clipPath id="f1f32a9f24"><path d="M 163.539062 12.613281 L 197 12.613281 L 197 40.792969 L 163.539062 40.792969 Z M 163.539062 12.613281 " clip-rule="nonzero"/></clipPath></defs><g fill="#a359a0" fill-opacity="1"><g transform="translate(11.107218, 41.207772)"><g><path d="M -0.578125 -0.1875 C 1.203125 -1.96875 2.5 -3.910156 3.3125 -6.015625 L 11.421875 -26.65625 L 16.5625 -26.65625 L 24.5625 -6.28125 C 25.039062 -5.007812 25.550781 -3.90625 26.09375 -2.96875 C 26.644531 -2.03125 27.335938 -1.101562 28.171875 -0.1875 L 28.171875 0 L 15.796875 0 L 15.796875 -0.1875 C 16.554688 -1.257812 16.9375 -2.40625 16.9375 -3.625 C 16.9375 -4.457031 16.75 -5.34375 16.375 -6.28125 L 15.421875 -8.5625 L 5.71875 -8.5625 L 4.953125 -6.734375 C 4.617188 -5.898438 4.453125 -5.085938 4.453125 -4.296875 C 4.453125 -2.773438 5 -1.40625 6.09375 -0.1875 L 6.09375 0 L -0.578125 0 Z M 10.546875 -21.203125 L 6.09375 -9.703125 L 15.046875 -9.703125 Z M 10.546875 -21.203125 "/></g></g></g><g fill="#a359a0" fill-opacity="1"><g transform="translate(38.397391, 41.207772)"><g><path d="M 24.375 0.375 C 22.539062 0.375 21.066406 -0.0351562 19.953125 -0.859375 C 18.835938 -1.679688 18.003906 -2.660156 17.453125 -3.796875 C 16.910156 -4.941406 16.398438 -6.351562 15.921875 -8.03125 C 15.484375 -9.550781 15.054688 -10.65625 14.640625 -11.34375 C 14.222656 -12.03125 13.59375 -12.375 12.75 -12.375 L 11.234375 -12.375 L 11.234375 -6.09375 C 11.234375 -4.800781 11.347656 -3.675781 11.578125 -2.71875 C 11.804688 -1.769531 12.195312 -0.925781 12.75 -0.1875 L 12.75 0 L 2.09375 0 L 2.09375 -0.1875 C 2.65625 -0.925781 3.050781 -1.769531 3.28125 -2.71875 C 3.507812 -3.675781 3.625 -4.800781 3.625 -6.09375 L 3.625 -20.5625 C 3.625 -21.851562 3.507812 -22.972656 3.28125 -23.921875 C 3.050781 -24.878906 2.65625 -25.726562 2.09375 -26.46875 L 2.09375 -26.65625 L 14.65625 -26.65625 C 17.832031 -26.65625 20.46875 -26.132812 22.5625 -25.09375 C 24.65625 -24.050781 25.703125 -22.222656 25.703125 -19.609375 C 25.703125 -17.609375 24.957031 -16.03125 23.46875 -14.875 C 21.988281 -13.71875 20.195312 -13.0625 18.09375 -12.90625 L 18.09375 -12.71875 C 20.164062 -12.644531 21.753906 -11.96875 22.859375 -10.6875 C 23.960938 -9.40625 24.859375 -7.734375 25.546875 -5.671875 C 26.003906 -4.304688 26.4375 -3.269531 26.84375 -2.5625 C 27.25 -1.863281 27.757812 -1.515625 28.375 -1.515625 C 28.75 -1.515625 29.0625 -1.644531 29.3125 -1.90625 L 29.703125 -1.515625 C 29.316406 -0.960938 28.625 -0.507812 27.625 -0.15625 C 26.625 0.195312 25.539062 0.375 24.375 0.375 Z M 13.703125 -13.515625 C 15.148438 -13.515625 16.207031 -14.066406 16.875 -15.171875 C 17.550781 -16.273438 17.890625 -17.753906 17.890625 -19.609375 C 17.890625 -21.410156 17.550781 -22.863281 16.875 -23.96875 C 16.207031 -25.070312 15.148438 -25.625 13.703125 -25.625 C 12.816406 -25.625 11.992188 -25.4375 11.234375 -25.0625 L 11.234375 -13.515625 Z M 13.703125 -13.515625 "/></g></g></g><g fill="#a359a0" fill-opacity="1"><g transform="translate(66.829419, 41.207772)"><g><path d="M 8.1875 -0.1875 C 8.75 -0.925781 9.140625 -1.769531 9.359375 -2.71875 C 9.585938 -3.675781 9.703125 -4.800781 9.703125 -6.09375 L 9.703125 -25.515625 L 9.4375 -25.515625 C 7.40625 -25.515625 5.582031 -24.804688 3.96875 -23.390625 C 2.363281 -21.984375 1.039062 -20.085938 0 -17.703125 L -0.375 -17.703125 L 0.6875 -26.65625 L 26.34375 -26.65625 L 27.421875 -17.703125 L 27.03125 -17.703125 C 25.988281 -20.085938 24.660156 -21.984375 23.046875 -23.390625 C 21.441406 -24.804688 19.625 -25.515625 17.59375 -25.515625 L 17.328125 -25.515625 L 17.328125 -6.09375 C 17.328125 -4.800781 17.441406 -3.675781 17.671875 -2.71875 C 17.898438 -1.769531 18.289062 -0.925781 18.84375 -0.1875 L 18.84375 0 L 8.1875 0 Z M 8.1875 -0.1875 "/></g></g></g><g fill="#a359a0" fill-opacity="1"><g transform="translate(93.168044, 41.207772)"><g><path d="M 2.28125 -0.1875 C 2.84375 -0.925781 3.238281 -1.769531 3.46875 -2.71875 C 3.695312 -3.675781 3.8125 -4.800781 3.8125 -6.09375 L 3.8125 -20.5625 C 3.8125 -21.851562 3.695312 -22.972656 3.46875 -23.921875 C 3.238281 -24.878906 2.84375 -25.726562 2.28125 -26.46875 L 2.28125 -26.65625 L 12.953125 -26.65625 L 12.953125 -26.46875 C 12.390625 -25.726562 11.992188 -24.878906 11.765625 -23.921875 C 11.535156 -22.972656 11.421875 -21.851562 11.421875 -20.5625 L 11.421875 -6.09375 C 11.421875 -4.800781 11.535156 -3.675781 11.765625 -2.71875 C 11.992188 -1.769531 12.390625 -0.925781 12.953125 -0.1875 L 12.953125 0 L 2.28125 0 Z M 2.28125 -0.1875 "/></g></g></g><g fill="#a359a0" fill-opacity="1"><g transform="translate(107.707467, 41.207772)"><g><path d="M 14.359375 0.578125 C 11.941406 0.578125 9.726562 0.0351562 7.71875 -1.046875 C 5.71875 -2.128906 4.117188 -3.691406 2.921875 -5.734375 C 1.734375 -7.773438 1.140625 -10.179688 1.140625 -12.953125 C 1.140625 -15.691406 1.785156 -18.144531 3.078125 -20.3125 C 4.378906 -22.488281 6.144531 -24.179688 8.375 -25.390625 C 10.613281 -26.609375 13.085938 -27.21875 15.796875 -27.21875 C 17.453125 -27.21875 19.0625 -27.039062 20.625 -26.6875 C 22.1875 -26.332031 23.4375 -25.941406 24.375 -25.515625 L 24.375 -17.328125 L 23.984375 -17.328125 C 23.023438 -19.785156 21.738281 -21.859375 20.125 -23.546875 C 18.507812 -25.234375 16.6875 -26.078125 14.65625 -26.078125 C 13.414062 -26.078125 12.273438 -25.722656 11.234375 -25.015625 C 10.191406 -24.304688 9.359375 -23.222656 8.734375 -21.765625 C 8.117188 -20.304688 7.8125 -18.507812 7.8125 -16.375 C 7.8125 -14.238281 8.238281 -12.300781 9.09375 -10.5625 C 9.957031 -8.820312 11.15625 -7.453125 12.6875 -6.453125 C 14.226562 -5.453125 15.976562 -4.953125 17.9375 -4.953125 C 19.476562 -4.953125 20.890625 -5.3125 22.171875 -6.03125 C 23.460938 -6.757812 24.515625 -7.921875 25.328125 -9.515625 L 25.703125 -9.515625 C 25.453125 -7.566406 24.816406 -5.820312 23.796875 -4.28125 C 22.785156 -2.75 21.46875 -1.554688 19.84375 -0.703125 C 18.21875 0.148438 16.390625 0.578125 14.359375 0.578125 Z M 14.359375 0.578125 "/></g></g></g><g fill="#a359a0" fill-opacity="1"><g transform="translate(133.094549, 41.207772)"><g><path d="M 2.09375 -0.1875 C 2.65625 -0.925781 3.050781 -1.769531 3.28125 -2.71875 C 3.507812 -3.675781 3.625 -4.800781 3.625 -6.09375 L 3.625 -20.5625 C 3.625 -21.851562 3.507812 -22.972656 3.28125 -23.921875 C 3.050781 -24.878906 2.65625 -25.726562 2.09375 -26.46875 L 2.09375 -26.65625 L 12.75 -26.65625 L 12.75 -26.46875 C 12.195312 -25.726562 11.804688 -24.878906 11.578125 -23.921875 C 11.347656 -22.972656 11.234375 -21.851562 11.234375 -20.5625 L 11.234375 -14.28125 L 19.984375 -14.28125 L 19.984375 -20.5625 C 19.984375 -21.851562 19.867188 -22.972656 19.640625 -23.921875 C 19.421875 -24.878906 19.03125 -25.726562 18.46875 -26.46875 L 18.46875 -26.65625 L 29.125 -26.65625 L 29.125 -26.46875 C 28.570312 -25.726562 28.179688 -24.878906 27.953125 -23.921875 C 27.722656 -22.972656 27.609375 -21.851562 27.609375 -20.5625 L 27.609375 -6.09375 C 27.609375 -4.800781 27.722656 -3.675781 27.953125 -2.71875 C 28.179688 -1.769531 28.570312 -0.925781 29.125 -0.1875 L 29.125 0 L 18.46875 0 L 18.46875 -0.1875 C 19.03125 -0.925781 19.421875 -1.769531 19.640625 -2.71875 C 19.867188 -3.675781 19.984375 -4.800781 19.984375 -6.09375 L 19.984375 -13.140625 L 11.234375 -13.140625 L 11.234375 -6.09375 C 11.234375 -4.800781 11.347656 -3.675781 11.578125 -2.71875 C 11.804688 -1.769531 12.195312 -0.925781 12.75 -0.1875 L 12.75 0 L 2.09375 0 Z M 2.09375 -0.1875 "/></g></g></g><g clip-path="url(#f1f32a9f24)"><path fill="#a359a0" d="M 165.84375 39.207031 C 165.859375 38.625 165.046875 37.652344 164.984375 37.238281 C 164.863281 36.445312 164.890625 35.710938 164.410156 35.109375 C 164.472656 35.308594 164.550781 35.503906 164.585938 35.695312 C 164.675781 36.167969 164.714844 36.660156 164.78125 37.136719 C 164.898438 37.957031 165.304688 38.605469 165.84375 39.207031 Z M 175.984375 32.417969 C 175.980469 31.589844 176.175781 30.328125 175.476562 29.753906 C 175.054688 29.40625 173.78125 28.664062 173.628906 29.597656 C 173.484375 30.496094 173.171875 31.628906 174.132812 32.195312 C 174.710938 32.53125 175.34375 32.585938 175.984375 32.417969 Z M 177.539062 14.503906 C 176.832031 13.730469 175.503906 14.386719 174.828125 14.890625 C 174.089844 15.441406 173.578125 16.140625 173.175781 16.957031 C 172.785156 17.75 172.378906 18.578125 172.125 19.425781 C 171.84375 20.355469 172.058594 21.183594 172.304688 22.070312 C 172.542969 21.839844 172.808594 21.632812 173.078125 21.4375 C 173.335938 21.253906 173.597656 21.0625 173.871094 20.882812 C 174.371094 19.386719 175.109375 17.945312 175.710938 16.480469 C 176.15625 15.398438 176.671875 15.027344 177.539062 14.503906 Z M 176.820312 34.480469 C 176.824219 34.476562 176.828125 34.476562 176.832031 34.472656 C 176.460938 33.964844 176.066406 33.460938 175.992188 32.84375 C 175.144531 33.035156 174.089844 32.90625 173.507812 32.199219 C 173.183594 31.804688 172.960938 31.34375 173.027344 30.816406 C 173.070312 30.492188 173.074219 30.050781 173.15625 29.664062 C 172.527344 30.128906 171.851562 30.546875 171.238281 31.027344 C 170.585938 31.53125 169.878906 31.902344 169.113281 32.207031 C 167.472656 32.863281 166.171875 34.023438 164.519531 34.625 C 164.640625 34.730469 164.75 34.847656 164.847656 34.972656 C 165.167969 34.710938 165.515625 34.566406 165.816406 34.4375 C 166.179688 34.28125 166.511719 34.167969 166.789062 34.039062 C 167.074219 33.914062 167.292969 33.773438 167.507812 33.632812 C 167.714844 33.496094 167.898438 33.378906 168.054688 33.277344 C 168.691406 32.878906 168.953125 32.75 168.980469 32.789062 C 169.007812 32.828125 168.800781 33.027344 168.195312 33.480469 C 168.042969 33.589844 167.867188 33.722656 167.664062 33.871094 C 167.5625 33.941406 167.460938 34.023438 167.335938 34.097656 C 167.207031 34.175781 167.074219 34.261719 166.925781 34.324219 C 166.632812 34.46875 166.300781 34.589844 165.949219 34.746094 C 165.644531 34.878906 165.3125 35.035156 165.035156 35.269531 C 165.082031 35.363281 165.121094 35.460938 165.152344 35.566406 C 165.332031 36.222656 165.242188 36.976562 165.570312 37.585938 C 165.621094 37.554688 165.671875 37.523438 165.722656 37.492188 C 165.84375 37.4375 165.96875 37.382812 166.082031 37.332031 C 166.316406 37.230469 166.539062 37.140625 166.730469 37.042969 C 167.132812 36.839844 167.480469 36.613281 167.824219 36.453125 C 168.507812 36.109375 169.046875 35.90625 169.457031 35.738281 C 170.296875 35.433594 170.628906 35.351562 170.644531 35.394531 C 170.660156 35.4375 170.363281 35.601562 169.554688 35.957031 C 169.160156 36.160156 168.613281 36.386719 167.972656 36.734375 C 167.644531 36.894531 167.300781 37.128906 166.886719 37.34375 C 166.527344 37.539062 166.109375 37.664062 165.738281 37.878906 C 165.855469 38.089844 165.992188 38.34375 166.09375 38.609375 C 166.457031 38.441406 166.804688 38.285156 167.128906 38.132812 C 167.496094 37.972656 167.839844 37.820312 168.164062 37.679688 L 168.171875 37.675781 L 168.175781 37.671875 C 168.558594 37.515625 168.890625 37.292969 169.207031 37.089844 C 169.371094 36.996094 169.519531 36.890625 169.6875 36.828125 C 169.765625 36.792969 169.847656 36.757812 169.921875 36.722656 C 170 36.691406 170.074219 36.671875 170.148438 36.648438 C 170.449219 36.558594 170.6875 36.46875 170.914062 36.390625 C 171.140625 36.300781 171.332031 36.226562 171.507812 36.164062 C 171.679688 36.097656 171.828125 36.046875 171.953125 36.003906 C 172.082031 35.972656 172.1875 35.949219 172.265625 35.929688 C 172.429688 35.894531 172.503906 35.890625 172.507812 35.910156 C 172.515625 35.929688 172.449219 35.96875 172.300781 36.035156 C 172.226562 36.070312 172.132812 36.113281 172.011719 36.160156 C 171.894531 36.214844 171.753906 36.277344 171.589844 36.355469 C 171.421875 36.433594 171.230469 36.523438 171.011719 36.625 C 170.785156 36.710938 170.519531 36.828125 170.242188 36.917969 C 170.175781 36.945312 170.097656 36.964844 170.03125 36.996094 C 169.960938 37.027344 169.890625 37.0625 169.820312 37.097656 C 169.671875 37.15625 169.527344 37.261719 169.375 37.351562 C 169.070312 37.554688 168.730469 37.796875 168.296875 37.984375 L 168.304688 37.976562 C 167.984375 38.125 167.632812 38.277344 167.265625 38.445312 C 166.929688 38.601562 166.574219 38.765625 166.199219 38.9375 C 166.214844 39.011719 166.230469 39.085938 166.234375 39.152344 C 167.132812 38.890625 168.074219 38.679688 168.835938 38.132812 C 169.605469 37.578125 170.441406 37.125 171.335938 36.800781 C 173.222656 36.117188 174.972656 35.222656 176.820312 34.480469 Z M 183.617188 21.421875 C 183.882812 20.503906 183.917969 19.609375 182.621094 19.695312 C 181.882812 19.746094 181.152344 19.851562 180.414062 19.914062 C 178.964844 20.035156 177.546875 19.902344 176.195312 20.507812 C 176.203125 20.601562 176.167969 20.71875 176.074219 20.863281 C 176.574219 23.257812 175.152344 25.332031 175.265625 27.695312 C 175.289062 28.140625 175.40625 28.660156 175.148438 29.042969 C 175.316406 29.140625 175.472656 29.238281 175.601562 29.328125 C 175.613281 29.332031 175.625 29.34375 175.632812 29.351562 C 176.816406 27.851562 178.664062 28.417969 180.3125 28.917969 C 181.25 27.726562 181.546875 26.324219 182.121094 24.945312 C 182.609375 23.777344 183.257812 22.640625 183.617188 21.421875 Z M 184.632812 14.949219 C 184.523438 14.410156 184.242188 13.886719 183.777344 13.601562 C 182.761719 13.25 181.558594 13.691406 180.570312 13.988281 C 179.78125 14.226562 178.859375 14.332031 178.179688 14.824219 C 178.097656 14.882812 178.019531 14.894531 177.945312 14.882812 C 177.324219 15.289062 176.65625 15.671875 176.328125 16.347656 C 176.296875 16.417969 176.238281 16.445312 176.179688 16.449219 C 176.027344 16.804688 175.890625 17.164062 175.730469 17.515625 C 175.289062 18.488281 174.800781 19.527344 174.425781 20.546875 C 174.648438 20.425781 174.878906 20.324219 175.121094 20.253906 C 175.328125 20.191406 175.625 20.167969 175.851562 20.21875 C 177.445312 19.4375 179.222656 19.585938 180.953125 19.4375 C 180.960938 19.433594 180.960938 19.425781 180.964844 19.417969 C 181.429688 18.910156 181.953125 18.40625 182.277344 17.792969 C 182.527344 17.316406 182.769531 16.855469 183.085938 16.414062 C 183.183594 16.277344 183.382812 16.125 183.605469 15.960938 C 183.621094 15.9375 183.644531 15.914062 183.675781 15.894531 C 183.71875 15.867188 183.757812 15.84375 183.800781 15.820312 C 184.175781 15.546875 184.554688 15.25 184.632812 14.949219 Z M 184.515625 32.378906 C 184.871094 31.839844 185.578125 30.734375 184.273438 30.335938 C 183.890625 30.214844 183.503906 30.109375 183.113281 30.023438 C 182.746094 29.941406 182.371094 29.871094 182 29.792969 C 181.960938 29.796875 181.921875 29.789062 181.890625 29.769531 C 181.648438 29.714844 181.402344 29.660156 181.160156 29.589844 C 180.941406 29.53125 180.703125 29.453125 180.453125 29.375 C 180.363281 29.425781 180.265625 29.378906 180.210938 29.296875 C 178.730469 28.820312 176.9375 28.296875 175.945312 29.609375 C 175.941406 29.617188 175.933594 29.621094 175.929688 29.628906 C 176.546875 30.378906 176.378906 31.601562 176.394531 32.503906 C 176.394531 32.511719 176.390625 32.519531 176.390625 32.527344 C 176.390625 32.539062 176.394531 32.546875 176.394531 32.558594 C 176.359375 33.285156 176.875 33.851562 177.296875 34.425781 C 177.945312 35.011719 178.574219 35.773438 179.46875 35.960938 C 180.230469 36.121094 181.777344 36.523438 182.40625 35.804688 C 182.863281 35.273438 183.078125 34.628906 183.433594 34.035156 C 183.769531 33.464844 184.15625 32.933594 184.515625 32.378906 Z M 184.003906 39.753906 C 184.382812 39.53125 184.726562 39.21875 184.539062 38.769531 C 184.351562 38.308594 183.699219 38.121094 183.289062 37.917969 C 182.542969 37.550781 181.835938 37.160156 181.210938 36.613281 C 180.578125 36.632812 179.917969 36.527344 179.359375 36.355469 C 178.75 36.175781 178.28125 35.847656 177.832031 35.464844 C 177.828125 35.484375 177.828125 35.5 177.820312 35.515625 C 177.214844 37.015625 179.503906 38.671875 180.628906 39.273438 C 181.230469 39.597656 181.9375 39.972656 182.636719 39.96875 C 183.113281 39.964844 183.542969 39.820312 184.003906 39.753906 Z M 190.257812 19.132812 C 190.542969 18.832031 191.582031 18.164062 190.640625 17.632812 C 190.222656 17.402344 189.78125 17.242188 189.335938 17.0625 C 187.453125 16.308594 185.613281 16.402344 183.628906 16.417969 C 183.125 16.949219 182.898438 17.65625 182.472656 18.265625 C 182.195312 18.65625 181.886719 19.015625 181.566406 19.371094 C 182.605469 19.226562 184.023438 18.964844 184.222656 20.269531 C 184.234375 20.328125 184.234375 20.390625 184.238281 20.449219 C 185.738281 20.503906 187.257812 20.507812 188.703125 20.957031 C 188.917969 21.027344 189.136719 21.050781 189.359375 21.0625 C 189.644531 20.425781 189.757812 19.648438 190.257812 19.132812 Z M 190.949219 17.367188 C 191.078125 17.28125 191.199219 17.1875 191.320312 17.101562 C 190.996094 15.863281 189.472656 15.828125 188.40625 15.714844 C 187.308594 15.59375 186.21875 15.566406 185.117188 15.671875 C 185.089844 15.671875 185.066406 15.671875 185.042969 15.671875 C 184.792969 15.761719 184.550781 15.875 184.316406 16.003906 C 186.601562 15.980469 189.011719 16.011719 190.949219 17.367188 Z M 190.089844 25.792969 C 190.503906 24.964844 192.253906 23.164062 191.542969 22.191406 C 190.851562 21.253906 190.242188 21.636719 189.34375 21.515625 C 188.839844 21.449219 188.390625 21.261719 187.898438 21.164062 C 186.6875 20.933594 185.464844 20.910156 184.238281 20.859375 C 184.117188 22.265625 182.976562 23.875 182.523438 25.054688 C 181.980469 26.453125 181.625 27.839844 180.734375 29.042969 C 180.917969 29.097656 181.097656 29.152344 181.269531 29.195312 C 181.476562 29.246094 181.75 29.289062 182.066406 29.339844 C 183.699219 28.703125 185.585938 28.625 187.316406 28.71875 C 187.886719 28.753906 188.496094 28.898438 189.097656 28.984375 C 189.113281 28.964844 189.128906 28.945312 189.148438 28.933594 C 189.503906 27.90625 189.605469 26.753906 190.089844 25.792969 Z M 191.601562 32.484375 C 192.003906 31.757812 191.871094 30.949219 191.667969 30.179688 C 191.378906 29.101562 190.648438 29.585938 189.960938 29.515625 C 189.726562 29.492188 189.492188 29.460938 189.265625 29.433594 C 189.230469 29.433594 189.199219 29.429688 189.171875 29.417969 C 188.164062 29.277344 187.1875 29.101562 186.140625 29.125 C 185.058594 29.144531 183.984375 29.210938 182.949219 29.484375 C 184.363281 29.75 185.90625 30.238281 185.351562 31.664062 C 184.90625 32.808594 184.011719 33.722656 183.476562 34.832031 C 183.195312 35.417969 182.839844 36.242188 182.152344 36.460938 C 182.132812 36.46875 182.109375 36.472656 182.089844 36.476562 C 183.273438 36.902344 184.574219 36.886719 185.808594 36.75 C 186.9375 36.625 188.421875 36.617188 189.230469 35.730469 C 190.121094 34.761719 190.960938 33.636719 191.601562 32.484375 Z M 192.6875 36.722656 C 192.691406 36.695312 192.695312 36.671875 192.707031 36.648438 C 191.960938 35.859375 190.105469 36.375 189.300781 36.542969 C 188.347656 36.75 187.386719 37.03125 186.40625 37.09375 C 185.160156 37.179688 183.71875 37.296875 182.441406 37 C 182.78125 37.207031 183.136719 37.386719 183.496094 37.5625 C 183.992188 37.804688 184.523438 37.984375 184.851562 38.449219 C 185.210938 38.964844 184.988281 39.421875 184.605469 39.777344 C 186.183594 39.976562 187.773438 39.785156 189.28125 39.257812 C 190.515625 38.820312 192.480469 38.285156 192.6875 36.722656 Z M 194.011719 24.953125 C 194.363281 24.078125 195.023438 23.078125 194.414062 22.121094 C 193.648438 20.9375 192.714844 21.402344 191.621094 21.398438 C 191.539062 21.398438 191.453125 21.398438 191.371094 21.398438 C 191.5 21.484375 191.617188 21.601562 191.726562 21.75 C 192.421875 22.695312 191.96875 23.644531 191.359375 24.53125 C 190.816406 25.328125 190.371094 26.066406 190.132812 27.019531 C 189.992188 27.59375 189.847656 28.164062 189.664062 28.722656 C 190.570312 28.382812 191.464844 28.066406 192.347656 27.632812 C 192.667969 27.480469 192.976562 27.304688 193.292969 27.136719 C 193.292969 27.132812 193.292969 27.132812 193.292969 27.132812 C 193.695312 26.453125 193.722656 25.675781 194.011719 24.953125 Z M 194.84375 20.476562 C 194.8125 19.796875 194.578125 19.117188 193.929688 18.804688 C 193.109375 18.410156 192.386719 17.894531 191.597656 17.457031 C 191.582031 17.449219 191.574219 17.441406 191.5625 17.433594 C 191.46875 17.5 191.375 17.566406 191.28125 17.632812 C 191.542969 17.929688 191.613281 18.359375 191.316406 18.675781 C 190.875 19.152344 190.386719 19.453125 190.15625 20.117188 C 190.058594 20.402344 189.960938 20.683594 189.851562 20.960938 C 190.441406 20.957031 191.03125 21.027344 191.621094 20.988281 C 192.203125 20.949219 192.75 20.789062 193.332031 20.820312 C 193.507812 20.828125 193.667969 20.878906 193.816406 20.953125 C 193.84375 20.941406 193.871094 20.933594 193.898438 20.933594 C 194.242188 20.917969 194.601562 20.707031 194.84375 20.476562 Z M 195.179688 23.875 C 195.644531 23.066406 195.71875 21.695312 194.949219 21.046875 C 194.921875 21.027344 194.902344 21 194.886719 20.976562 C 194.699219 21.109375 194.488281 21.21875 194.269531 21.28125 C 194.546875 21.550781 194.761719 21.898438 194.902344 22.210938 C 195.179688 22.828125 195.058594 23.535156 194.820312 24.148438 C 194.921875 24.074219 195.03125 24.007812 195.148438 23.949219 C 195.15625 23.925781 195.167969 23.902344 195.179688 23.875 Z M 192.898438 36.269531 C 193.835938 35.574219 197.402344 32.648438 195.652344 31.316406 C 195.34375 31.820312 195.003906 32.265625 194.496094 32.671875 C 193.847656 33.183594 193.210938 33.628906 192.632812 34.226562 C 191.976562 34.898438 191.28125 35.472656 190.492188 35.898438 C 191.363281 35.769531 192.308594 35.761719 192.898438 36.269531 Z M 195.695312 26.832031 C 195.871094 26.089844 196.078125 24.699219 195.492188 24.496094 C 195.183594 24.523438 194.871094 24.71875 194.640625 24.910156 C 194.585938 24.984375 194.53125 25.058594 194.480469 25.136719 C 194.464844 25.167969 194.4375 25.1875 194.414062 25.203125 C 194.246094 25.742188 194.117188 26.292969 193.90625 26.804688 C 194.078125 26.71875 194.25 26.632812 194.421875 26.554688 C 195.140625 26.234375 195.441406 26.449219 195.695312 26.832031 Z M 196.035156 28.847656 C 196.054688 28.417969 196.035156 28.117188 195.910156 27.847656 C 195.804688 27.617188 195.617188 27.410156 195.308594 27.175781 C 194.917969 26.867188 194.53125 26.921875 194.109375 27.167969 C 193.714844 27.398438 193.328125 27.648438 192.917969 27.84375 C 191.933594 28.308594 190.957031 28.671875 189.953125 29.050781 C 190.175781 29.046875 190.398438 29.023438 190.609375 28.96875 C 191.027344 28.863281 191.335938 28.820312 191.667969 29.152344 C 192.269531 29.75 192.550781 31.621094 192.132812 32.382812 C 191.441406 33.625 190.570312 34.800781 189.601562 35.855469 C 190.90625 35.316406 191.722656 34.382812 192.820312 33.421875 C 193.339844 32.964844 193.96875 32.632812 194.472656 32.167969 C 194.949219 31.722656 195.097656 31.296875 195.347656 30.734375 C 195.625 30.109375 196.007812 29.550781 196.035156 28.847656 Z M 196.320312 27.195312 C 196.710938 27.539062 196.75 28.214844 196.730469 28.695312 C 196.699219 29.464844 196.445312 30.121094 196.09375 30.78125 C 198.34375 32.480469 194.800781 35.675781 193.367188 36.773438 C 193.117188 38.425781 191.5625 39.160156 190.121094 39.683594 C 188.179688 40.386719 186.261719 40.722656 184.214844 40.414062 C 184.195312 40.417969 184.179688 40.421875 184.160156 40.421875 C 183.222656 40.507812 182.53125 40.792969 181.59375 40.453125 C 180.71875 40.140625 179.9375 39.699219 179.199219 39.148438 C 178.15625 38.367188 176.675781 36.957031 177.101562 35.503906 C 177.011719 35.414062 176.925781 35.316406 176.855469 35.207031 C 175.972656 35.578125 175.132812 36.035156 174.261719 36.425781 C 173.363281 36.824219 172.433594 37.101562 171.519531 37.464844 C 170.4375 37.890625 169.570312 38.660156 168.519531 39.109375 C 167.683594 39.464844 166.804688 39.671875 165.945312 39.960938 C 165.851562 39.992188 165.769531 39.984375 165.703125 39.949219 C 165.632812 39.941406 165.558594 39.910156 165.496094 39.84375 C 164.792969 39.101562 164.265625 38.34375 164.117188 37.320312 C 164.039062 36.785156 164.035156 36.046875 163.859375 35.542969 C 163.730469 35.179688 163.582031 34.894531 163.617188 34.507812 C 163.628906 34.398438 163.679688 34.3125 163.75 34.257812 C 163.789062 34.183594 163.851562 34.121094 163.957031 34.089844 C 165.675781 33.574219 166.933594 32.34375 168.582031 31.683594 C 169.640625 31.261719 170.484375 30.757812 171.378906 30.046875 C 171.941406 29.601562 172.578125 29.257812 173.132812 28.808594 C 171.324219 27.375 170.570312 24.53125 171.710938 22.519531 C 171.316406 21.035156 171.152344 19.988281 171.742188 18.519531 C 172.183594 17.410156 172.628906 16.175781 173.425781 15.261719 C 174.460938 14.070312 176.789062 12.609375 178.074219 14.078125 C 178.949219 13.558594 180.136719 13.363281 181.089844 13.128906 C 181.964844 12.90625 182.9375 12.640625 183.828125 12.898438 C 183.882812 12.894531 183.933594 12.90625 183.988281 12.933594 C 184.769531 13.296875 185.191406 14.144531 185.328125 14.96875 C 186.863281 14.84375 188.507812 14.898438 190.003906 15.257812 C 191.03125 15.5 191.71875 15.871094 191.980469 16.886719 C 192.542969 17.199219 193.058594 17.605469 193.636719 17.898438 C 194.019531 18.089844 194.519531 18.234375 194.8125 18.5625 C 195.324219 19.140625 195.535156 19.898438 195.535156 20.65625 C 196.351562 21.457031 196.363281 22.902344 195.917969 23.929688 C 196.839844 24.449219 196.566406 26.28125 196.320312 27.195312 Z M 174.726562 20.859375 C 174.421875 21.023438 174.136719 21.207031 173.851562 21.402344 C 173.382812 21.71875 172.878906 22.046875 172.488281 22.46875 C 172.492188 22.53125 172.476562 22.589844 172.433594 22.660156 C 171.25 24.46875 172.027344 27.324219 173.859375 28.484375 C 173.914062 28.519531 173.949219 28.566406 173.976562 28.609375 C 174.445312 28.710938 174.917969 28.738281 174.890625 28.265625 C 174.855469 27.664062 174.847656 27.066406 174.957031 26.46875 C 175.292969 24.605469 176.09375 22.828125 175.664062 20.90625 C 175.652344 20.855469 175.664062 20.808594 175.683594 20.769531 C 175.683594 20.738281 175.6875 20.699219 175.714844 20.664062 C 175.863281 20.441406 174.78125 20.863281 174.722656 20.863281 L 174.726562 20.859375 " fill-opacity="1" fill-rule="nonzero"/></g><g fill="#a359a0" fill-opacity="1"><g transform="translate(199.090929, 40.361758)"><g><path d="M 2.09375 -0.1875 C 2.65625 -0.925781 3.050781 -1.769531 3.28125 -2.71875 C 3.507812 -3.675781 3.625 -4.800781 3.625 -6.09375 L 3.625 -20.5625 C 3.625 -21.851562 3.507812 -22.972656 3.28125 -23.921875 C 3.050781 -24.878906 2.65625 -25.726562 2.09375 -26.46875 L 2.09375 -26.65625 L 12.75 -26.65625 L 12.75 -26.46875 C 12.195312 -25.726562 11.804688 -24.878906 11.578125 -23.921875 C 11.347656 -22.972656 11.234375 -21.851562 11.234375 -20.5625 L 11.234375 -6.09375 C 11.234375 -4.800781 11.347656 -3.675781 11.578125 -2.71875 C 11.804688 -1.769531 12.195312 -0.925781 12.75 -0.1875 L 12.75 0 L 2.09375 0 Z M 25.359375 0.375 C 23.203125 0.375 21.453125 -0.0195312 20.109375 -0.8125 C 18.765625 -1.613281 17.519531 -2.929688 16.375 -4.765625 L 12 -11.875 L 12 -12.078125 L 18.625 -20.5625 C 19.789062 -22.0625 20.375 -23.332031 20.375 -24.375 C 20.375 -25.15625 20.039062 -25.851562 19.375 -26.46875 L 19.375 -26.65625 L 27.609375 -26.65625 L 27.609375 -26.46875 C 24.941406 -25.445312 22.488281 -23.53125 20.25 -20.71875 L 17.59375 -17.328125 L 25.8125 -4.6875 C 26.625 -3.4375 27.320312 -2.550781 27.90625 -2.03125 C 28.488281 -1.507812 29.148438 -1.148438 29.890625 -0.953125 L 29.890625 -0.578125 C 28.617188 0.0546875 27.109375 0.375 25.359375 0.375 Z M 25.359375 0.375 "/></g></g></g><g fill="#a359a0" fill-opacity="1"><g transform="translate(227.33265, 40.361758)"><g><path d="M 2.09375 -0.1875 C 2.65625 -0.925781 3.050781 -1.769531 3.28125 -2.71875 C 3.507812 -3.675781 3.625 -4.800781 3.625 -6.09375 L 3.625 -20.5625 C 3.625 -21.851562 3.507812 -22.972656 3.28125 -23.921875 C 3.050781 -24.878906 2.65625 -25.726562 2.09375 -26.46875 L 2.09375 -26.65625 L 22.46875 -26.65625 L 23.578125 -18.28125 L 23.1875 -18.28125 C 22.175781 -20.6875 20.859375 -22.492188 19.234375 -23.703125 C 17.609375 -24.910156 15.320312 -25.515625 12.375 -25.515625 L 11.234375 -25.515625 L 11.234375 -13.90625 L 12.75 -13.90625 C 14.425781 -13.90625 15.769531 -14.300781 16.78125 -15.09375 C 17.800781 -15.894531 18.550781 -17.082031 19.03125 -18.65625 L 19.421875 -18.65625 L 19.421875 -8 L 19.03125 -8 C 18.550781 -9.570312 17.800781 -10.753906 16.78125 -11.546875 C 15.769531 -12.347656 14.425781 -12.75 12.75 -12.75 L 11.234375 -12.75 L 11.234375 -1.140625 L 13.140625 -1.140625 C 16.078125 -1.140625 18.359375 -1.742188 19.984375 -2.953125 C 21.609375 -4.160156 22.929688 -5.96875 23.953125 -8.375 L 24.328125 -8.375 L 23.234375 0 L 2.09375 0 Z M 2.09375 -0.1875 "/></g></g></g></svg>
